<svg width="27" height="27" viewBox="0 0 27 27" fill="none" xmlns="http://www.w3.org/2000/svg">
<path d="M26.3802 4.04712L11.79 0.0299696C11.6743 -0.00187842 11.5532 -0.00870478 11.4348 0.00994575C11.3163 0.0285963 11.2031 0.072295 11.1029 0.138128L0.380637 7.17901C0.263695 7.2558 0.167682 7.36046 0.101238 7.48357C0.0347938 7.60668 4.11877e-06 7.74438 0 7.88428L0 21.4476C4.07791e-06 21.6273 0.0573837 21.8023 0.163781 21.9471C0.270178 22.0919 0.420034 22.199 0.591522 22.2527L15.6214 26.9611C15.7493 27.0012 15.8848 27.0102 16.0169 26.9874C16.1489 26.9647 16.2737 26.9108 16.3808 26.8303L26.6633 19.0982C26.7679 19.0196 26.8527 18.9178 26.9112 18.8007C26.9696 18.6837 27 18.5547 27 18.4239V4.8606C27 4.67585 26.9394 4.49621 26.8274 4.34925C26.7154 4.2023 26.5583 4.09615 26.3802 4.04712ZM11.71 1.75844L24.2766 5.2184L20.8466 7.79764L8.19039 4.06932L11.71 1.75844ZM15.7126 11.6582L2.79608 7.6117L6.34131 5.28368L19.1657 9.06147L15.7126 11.6582ZM1.6875 9.03278L15.0299 13.2125V25.0075L1.6875 20.8277V9.03278ZM16.7174 24.4658V13.0139L25.3125 6.55079V18.0027L16.7174 24.4658Z" fill="#FFE600"/>
</svg>
