<svg width="27" height="27" viewBox="0 0 27 27" fill="none" xmlns="http://www.w3.org/2000/svg">
<path d="M18.3102 15.8842L14.5457 13.0608V7.30946C14.5457 6.73117 14.0782 6.26374 13.4999 6.26374C12.9217 6.26374 12.4542 6.73117 12.4542 7.30946V13.5837C12.4542 13.9131 12.609 14.2237 12.8725 14.4203L17.0553 17.5574C17.2358 17.6933 17.4557 17.7667 17.6817 17.7665C18.0006 17.7665 18.3143 17.6233 18.5193 17.3472C18.8666 16.886 18.7724 16.2303 18.3102 15.8842Z" fill="#FFE600"/>
<path d="M13.5 0C6.05565 0 0 6.05565 0 13.5C0 20.9444 6.05565 27 13.5 27C20.9444 27 27 20.9444 27 13.5C27 6.05565 20.9444 0 13.5 0ZM13.5 24.9086C7.21011 24.9086 2.09139 19.7899 2.09139 13.5C2.09139 7.21011 7.21011 2.09139 13.5 2.09139C19.7909 2.09139 24.9086 7.21011 24.9086 13.5C24.9086 19.7899 19.7899 24.9086 13.5 24.9086Z" fill="#FFE600"/>
</svg>
