<svg width="24" height="23" viewBox="0 0 24 23" fill="none" xmlns="http://www.w3.org/2000/svg">
<path d="M22.17 9.45497C22.3334 9.09396 22.3535 8.68814 22.2264 8.31394C22.0993 7.93975 21.8338 7.62298 21.48 7.4233L19.56 6.3308C19.5372 6.31907 19.5173 6.3027 19.5017 6.28283C19.4862 6.26297 19.4754 6.2401 19.47 6.2158L18.97 4.11705C18.8792 3.73453 18.6468 3.39653 18.3158 3.16569C17.9848 2.93485 17.5777 2.82682 17.17 2.86164L14.94 3.0533C14.9152 3.05893 14.8893 3.05835 14.8648 3.05164C14.8403 3.04493 14.818 3.0323 14.8 3.01497L13.11 1.59664C12.8014 1.34167 12.4075 1.20142 12 1.20142C11.5925 1.20142 11.1986 1.34167 10.89 1.59664L9.2 3.01497C9.18203 3.0323 9.15973 3.04493 9.13522 3.05164C9.1107 3.05835 9.08481 3.05893 9.06 3.0533L6.83 2.86164C6.42134 2.8251 6.01285 2.93293 5.68135 3.16484C5.34985 3.39675 5.11821 3.73675 5.03 4.12089L4.53 6.21964C4.52463 6.24393 4.5138 6.2668 4.49825 6.28667C4.48271 6.30653 4.46283 6.3229 4.44 6.33464L2.52 7.4233C2.16616 7.62298 1.9007 7.93975 1.77362 8.31394C1.64653 8.68814 1.66658 9.09396 1.83 9.45497L2.72 11.4291C2.73946 11.4752 2.73946 11.5268 2.72 11.5729L1.83 13.5471C1.6674 13.9067 1.64781 14.3109 1.77493 14.6835C1.90205 15.056 2.16708 15.3711 2.52 15.5691L4.45 16.6751C4.49066 16.7025 4.51918 16.7435 4.53 16.7901L5.03 18.8888C5.11905 19.2722 5.35105 19.6113 5.68245 19.8425C6.01386 20.0736 6.4219 20.1809 6.83 20.1442L9.06 19.943C9.08551 19.9414 9.1111 19.9448 9.13518 19.953C9.15926 19.9613 9.18132 19.9742 9.2 19.9909L10.89 21.4092C11.1993 21.6627 11.593 21.802 12 21.802C12.407 21.802 12.8006 21.6627 13.11 21.4092L14.8 19.9909C14.8187 19.9742 14.8407 19.9613 14.8648 19.953C14.8889 19.9448 14.9145 19.9414 14.94 19.943L17.17 20.1442C17.5781 20.1809 17.9861 20.0736 18.3175 19.8425C18.6489 19.6113 18.8809 19.2722 18.97 18.8888L19.47 16.7901C19.4754 16.7658 19.4862 16.7429 19.5017 16.723C19.5173 16.7032 19.5372 16.6868 19.56 16.6751L21.48 15.573C21.8329 15.3749 22.0979 15.0598 22.2251 14.6873C22.3522 14.3148 22.3326 13.9105 22.17 13.5509L21.28 11.5767C21.2605 11.5306 21.2605 11.4791 21.28 11.433L22.17 9.45497ZM16.49 9.56997L11.53 14.4383C11.3846 14.5719 11.1914 14.6473 10.99 14.6491C10.8322 14.6505 10.678 14.6035 10.55 14.515L7.61 12.5025C7.44821 12.3906 7.33942 12.2218 7.30753 12.0331C7.27565 11.8444 7.3233 11.6513 7.44 11.4962C7.55669 11.3412 7.73288 11.2369 7.92979 11.2064C8.1267 11.1758 8.32821 11.2215 8.49 11.3333L10.9 12.9912L15.42 8.56372C15.4886 8.49587 15.5706 8.44175 15.6612 8.4045C15.7519 8.36724 15.8493 8.3476 15.9479 8.34671C16.0465 8.34582 16.1443 8.3637 16.2357 8.3993C16.327 8.43491 16.41 8.48754 16.48 8.55414C16.6208 8.68813 16.7008 8.86992 16.7027 9.06009C16.7046 9.25025 16.6282 9.43346 16.49 9.56997Z" fill="#FFE500"/>
</svg>
