<svg width="157" height="237" viewBox="0 0 157 237" fill="none" xmlns="http://www.w3.org/2000/svg">
<path d="M93.9976 0.841309C93.3987 0.869183 92.8143 1.03481 92.2898 1.32533C91.7654 1.61584 91.315 2.0234 90.9737 2.51632L0.774933 131.922C0.362798 132.511 0.119995 133.201 0.0729458 133.918C0.0258966 134.635 0.176405 135.351 0.50809 135.989C0.839775 136.626 1.33993 137.16 1.95413 137.533C2.56832 137.906 3.27303 138.103 3.99155 138.103H66.3969L58.9112 231.934C58.6148 235.892 63.7288 237.715 66.0263 234.483L156.24 105.078C156.652 104.489 156.895 103.799 156.942 103.082C156.989 102.365 156.838 101.649 156.507 101.011C156.175 100.374 155.675 99.8395 155.061 99.4667C154.446 99.0938 153.742 98.8965 153.023 98.8963H90.6179L98.1036 5.0659C98.1441 4.51155 98.0665 3.95491 97.8759 3.43278C97.6853 2.91065 97.386 2.43491 96.9979 2.03701C96.6098 1.63911 96.1417 1.32809 95.6245 1.12453C95.1073 0.920967 94.5528 0.814662 93.9976 0.841309Z" fill="#F8F8F8" fill-opacity="0.04"/>
</svg>
