<svg width="29" height="28" viewBox="0 0 29 28" fill="none" xmlns="http://www.w3.org/2000/svg">
<mask id="mask0_2_57" style="mask-type:luminance" maskUnits="userSpaceOnUse" x="0" y="0" width="29" height="28">
<path d="M27.9999 27V1.00008H1V27H27.9999Z" fill="white" stroke="white" stroke-width="2"/>
</mask>
<g mask="url(#mask0_2_57)">
<path d="M25.5181 3.36182C22.0085 -0.0267671 16.3182 -0.0267671 12.8086 3.36182C9.94136 6.13021 9.4171 10.3036 11.2348 13.5864L0.849609 23.6134V27.1797H4.54325L5.62655 26.1337L5.61081 23.9268L7.92808 23.9116L9.37836 22.5114L9.37864 20.4776L11.5065 20.4566L14.9284 17.1527C18.3284 18.9076 22.6509 18.4014 25.5181 15.6331C29.0277 12.2444 29.0277 6.75042 25.5181 3.36182Z" stroke="#FFE600" stroke-width="2" stroke-miterlimit="10"/>
<path d="M22.8744 9.3199C21.9004 10.2603 20.3213 10.2603 19.3473 9.3199C18.3733 8.37949 18.3733 6.85481 19.3473 5.91441C20.3213 4.974 21.9004 4.974 22.8744 5.91441C23.8484 6.85481 23.8484 8.37949 22.8744 9.3199Z" stroke="#FFE600" stroke-width="2" stroke-miterlimit="10"/>
</g>
</svg>
