<svg width="27" height="27" viewBox="0 0 27 27" fill="none" xmlns="http://www.w3.org/2000/svg">
<g clip-path="url(#clip0_2_173)">
<path fill-rule="evenodd" clip-rule="evenodd" d="M26.5062 23.7491C26.3269 23.9278 26.1107 24.1564 25.8815 24.3981C25.3094 25.0052 24.5948 25.76 24.1468 26.066C21.7901 27.6764 18.6373 26.9059 16.4071 25.9766C13.4651 24.7508 10.262 22.4914 7.38606 19.615C4.50739 16.7385 2.24815 13.5344 1.02234 10.5941C0.0942129 8.36346 -0.677976 5.20995 0.932689 2.85272C1.23855 2.40448 1.99502 1.69093 2.60136 1.11776C2.84394 0.889207 3.0707 0.673259 3.25 0.494543C3.56831 0.177808 3.9991 0 4.44815 0C4.8972 0 5.32798 0.177808 5.6463 0.494543L9.98254 4.82952C10.2991 5.14782 10.4768 5.57849 10.4768 6.02741C10.4768 6.47633 10.2991 6.90699 9.98254 7.22529L8.80129 8.40417C8.4068 8.79578 8.14929 9.30431 8.06711 9.85406C7.98493 10.4038 8.08246 10.9654 8.34519 11.4553C9.96993 14.5218 12.4782 17.0297 15.545 18.6539C16.0348 18.9165 16.5963 19.0139 17.1459 18.9316C17.6954 18.8493 18.2038 18.5917 18.5951 18.1971L19.7734 17.0181C20.0917 16.7014 20.5225 16.5236 20.9716 16.5236C21.4206 16.5236 21.8514 16.7014 22.1697 17.0181L26.5062 21.3538C26.8228 21.672 27.0005 22.1026 27.0005 22.5515C27.0005 23.0003 26.8228 23.4309 26.5062 23.7491Z" fill="#FFE600"/>
</g>
<defs>
<clipPath id="clip0_2_173">
<rect width="27" height="27" fill="white"/>
</clipPath>
</defs>
</svg>
