<svg width="26" height="26" viewBox="0 0 26 26" fill="none" xmlns="http://www.w3.org/2000/svg">
<path d="M24.4766 12.4535V9.38815C24.4766 7.88218 23.2783 6.6515 21.7852 6.59777V4.71628C21.7852 3.73625 20.9878 2.93893 20.0078 2.93893H15.1146L14.4828 1.18256C14.3216 0.734671 13.9955 0.376765 13.5645 0.174808C13.1335 -0.0272 12.6497 -0.0487312 12.2025 0.114073L3.32313 3.34584C2.87635 3.50844 2.51992 3.83543 2.31943 4.26656C2.11895 4.69769 2.09859 5.18098 2.26215 5.62744L2.61889 6.60118C1.15969 6.69141 0 7.90661 0 9.38815V23.2007C0 24.7407 1.25293 25.9936 2.79297 25.9936H21.6836C23.2236 25.9936 24.4766 24.7407 24.4766 23.2007V20.0338C25.3367 19.9102 26 19.1687 26 18.2749V14.2124C26 13.3186 25.3367 12.5771 24.4766 12.4535ZM24.4766 18.2749C24.4766 18.4149 24.3627 18.5288 24.2227 18.5288H20.1602C18.9001 18.5288 17.875 17.5037 17.875 16.2436C17.875 14.9836 18.9001 13.9585 20.1602 13.9585H24.2227C24.3627 13.9585 24.4766 14.0724 24.4766 14.2124V18.2749ZM3.69261 5.10338C3.68106 5.07204 3.67583 5.03872 3.67724 5.00534C3.67864 4.97197 3.68664 4.9392 3.70079 4.90894C3.71482 4.87863 3.73472 4.85141 3.75933 4.82883C3.78395 4.80626 3.81279 4.78878 3.84419 4.77742L12.7235 1.54565C12.8097 1.51432 12.8824 1.53762 12.9181 1.55433C12.9538 1.57104 13.0182 1.61197 13.0493 1.6983L13.4956 2.93898H13.1523C12.1723 2.93898 11.375 3.7363 11.375 4.71633V6.59523H4.23917L3.69261 5.10338ZM20.2617 4.71628V6.59518H12.8984V4.71628C12.8984 4.57627 13.0123 4.46237 13.1523 4.46237H20.0078C20.1478 4.46237 20.2617 4.57627 20.2617 4.71628ZM21.6836 24.4702H2.79297C2.09295 24.4702 1.52344 23.9007 1.52344 23.2007V9.38815C1.52344 8.68813 2.09295 8.11862 2.79297 8.11862H21.6836C22.3836 8.11862 22.9531 8.68813 22.9531 9.38815V12.435H20.1602C18.0601 12.435 16.3516 14.1436 16.3516 16.2436C16.3516 18.3437 18.0601 20.0522 20.1602 20.0522H22.9531V23.2007C22.9531 23.9007 22.3836 24.4702 21.6836 24.4702Z" fill="#FFE600"/>
<path d="M20.1602 17.0056C20.5808 17.0056 20.9219 16.6645 20.9219 16.2439C20.9219 15.8232 20.5808 15.4821 20.1602 15.4821C19.7395 15.4821 19.3984 15.8232 19.3984 16.2439C19.3984 16.6645 19.7395 17.0056 20.1602 17.0056Z" fill="#FFE600"/>
</svg>
